<svg width="299" height="272" viewBox="0 0 299 272" fill="none" xmlns="http://www.w3.org/2000/svg">
<mask id="path-1-inside-1_6932_36102" fill="white">
<path fill-rule="evenodd" clip-rule="evenodd" d="M91.0346 2.64054C67.1033 -1.5792 44.2823 14.4002 40.0626 38.3316L17.141 168.326C12.9213 192.258 28.9007 215.078 52.832 219.298L67.7558 221.93C68.489 222.242 69.2347 222.537 69.9926 222.813L194.032 267.959C216.867 276.27 242.116 264.497 250.427 241.662L295.574 117.622C303.885 94.7871 292.112 69.5381 269.277 61.2268L255.536 56.2255C250.894 40.8272 237.949 28.5455 221.029 25.5621L91.0346 2.64054Z"/>
</mask>
<path fill-rule="evenodd" clip-rule="evenodd" d="M91.0346 2.64054C67.1033 -1.5792 44.2823 14.4002 40.0626 38.3316L17.141 168.326C12.9213 192.258 28.9007 215.078 52.832 219.298L67.7558 221.93C68.489 222.242 69.2347 222.537 69.9926 222.813L194.032 267.959C216.867 276.27 242.116 264.497 250.427 241.662L295.574 117.622C303.885 94.7871 292.112 69.5381 269.277 61.2268L255.536 56.2255C250.894 40.8272 237.949 28.5455 221.029 25.5621L91.0346 2.64054Z" fill="#2CA7E3" fill-opacity="0.4"/>
<path d="M40.0626 38.3316L38.093 37.9843L38.093 37.9843L40.0626 38.3316ZM91.0346 2.64054L90.6873 4.61015L91.0346 2.64054ZM17.141 168.326L15.1714 167.979L15.1714 167.979L17.141 168.326ZM52.832 219.298L53.1793 217.329L53.1793 217.329L52.832 219.298ZM67.7558 221.93L68.5399 220.09L68.329 220L68.1031 219.96L67.7558 221.93ZM69.9926 222.813L70.6767 220.933L70.6767 220.933L69.9926 222.813ZM194.032 267.959L193.348 269.839L193.348 269.839L194.032 267.959ZM250.427 241.662L248.548 240.978L248.548 240.978L250.427 241.662ZM295.574 117.622L293.695 116.938L293.695 116.938L295.574 117.622ZM269.277 61.2268L268.592 63.1062L268.592 63.1062L269.277 61.2268ZM255.536 56.2255L253.621 56.8027L253.91 57.7622L254.852 58.1049L255.536 56.2255ZM221.029 25.5621L221.377 23.5925L221.377 23.5925L221.029 25.5621ZM42.0322 38.6789C46.0601 15.8353 67.8438 0.582217 90.6873 4.61015L91.3819 0.670922C66.3628 -3.74063 42.5045 12.9651 38.093 37.9843L42.0322 38.6789ZM19.1106 168.673L42.0322 38.6789L38.093 37.9843L15.1714 167.979L19.1106 168.673ZM53.1793 217.329C30.3358 213.301 15.0827 191.517 19.1106 168.673L15.1714 167.979C10.7599 192.998 27.4656 216.856 52.4847 221.268L53.1793 217.329ZM68.1031 219.96L53.1793 217.329L52.4847 221.268L67.4085 223.899L68.1031 219.96ZM70.6767 220.933C69.9525 220.67 69.2401 220.388 68.5399 220.09L66.9717 223.77C67.7379 224.096 68.517 224.404 69.3086 224.692L70.6767 220.933ZM194.716 266.08L70.6767 220.933L69.3086 224.692L193.348 269.839L194.716 266.08ZM248.548 240.978C240.615 262.775 216.513 274.013 194.716 266.08L193.348 269.839C217.221 278.528 243.618 266.219 252.307 242.346L248.548 240.978ZM293.695 116.938L248.548 240.978L252.307 242.346L297.453 118.306L293.695 116.938ZM268.592 63.1062C290.39 71.0397 301.628 95.1411 293.695 116.938L297.453 118.306C306.143 94.4332 293.834 68.0365 269.961 59.3474L268.592 63.1062ZM254.852 58.1049L268.592 63.1062L269.961 59.3474L256.22 54.3461L254.852 58.1049ZM220.682 27.5317C236.83 30.379 249.189 42.0991 253.621 56.8027L257.45 55.6483C252.6 39.5553 239.068 26.712 221.377 23.5925L220.682 27.5317ZM90.6873 4.61015L220.682 27.5317L221.377 23.5925L91.3819 0.670922L90.6873 4.61015Z" fill="url(#paint0_linear_6932_36102)" mask="url(#path-1-inside-1_6932_36102)"/>
<rect x="48.5143" y="-3.84154" width="218" height="218" rx="43" transform="rotate(10 48.5143 -3.84154)" fill="#2CA7E3" fill-opacity="0.5" stroke="url(#paint1_linear_6932_36102)" stroke-width="2"/>
<rect x="1" y="1" width="218" height="218" rx="43" fill="#51A6E1"/>
<rect x="1" y="1" width="218" height="218" rx="43" fill="url(#paint2_radial_6932_36102)" fill-opacity="0.3"/>
<rect x="1" y="1" width="218" height="218" rx="43" fill="url(#paint3_radial_6932_36102)" fill-opacity="0.3"/>
<rect x="1" y="1" width="218" height="218" rx="43" fill="url(#paint4_radial_6932_36102)" fill-opacity="0.3"/>
<path d="M168.502 86.9025C161.605 91.3179 141.127 105.367 130.723 112.248C127.214 114.569 121.805 114.645 120.009 114.274C117.17 113.689 114.388 112.986 110.543 112.986C106.698 112.986 102.83 113.689 99.9899 114.274C98.1956 114.644 92.7834 114.57 89.2761 112.247C78.8723 105.368 58.3932 91.3187 51.496 86.9033C50.133 86.0317 48.2342 86.5406 47.6832 87.0091C45.8797 88.5398 43.6387 90.4985 43.2227 93.8463C43.146 94.4649 43.5873 96.1092 44.6456 97.2119C50.09 102.89 73.6581 122.34 81.7096 133.098C86.0266 138.865 85.0834 144.482 86.207 148.802C93.5716 177.099 120.329 149.723 136.297 133.897C144.613 125.66 169.153 103.203 175.354 97.2127C176.453 96.1505 176.853 94.4657 176.777 93.8463C176.361 90.4985 174.12 88.539 172.318 87.0091C171.984 86.7266 171.161 86.4286 170.261 86.4286C169.668 86.4286 169.044 86.557 168.503 86.9033" fill="white"/>
<path d="M94.2858 92.321C94.2858 102.085 101.322 110 110.001 110C118.68 110 125.714 102.086 125.714 92.321C125.714 82.5585 118.68 74.6429 110.001 74.6429C101.323 74.6429 94.2858 82.5585 94.2858 92.321" fill="white"/>
<path d="M174.247 80.7545C170.212 84.1664 176.128 84.2474 177.291 85.9659C178.602 87.9075 178.914 92.1017 181.54 89.5641C184.166 87.0258 190 78.0673 188.249 75.23C187.995 74.8189 187.52 74.6429 186.895 74.6429C183.203 74.6429 174.248 80.7545 174.248 80.7545" fill="white"/>
<path d="M31.7504 75.23C30.0005 78.0673 35.8352 87.0257 38.4601 89.5639C41.0864 92.1022 41.3979 87.9066 42.7103 85.9657C43.8717 84.2473 49.7877 84.1662 45.7525 80.7544C45.7525 80.7544 36.7979 74.6436 33.1067 74.6429C32.4807 74.6429 32.0058 74.8197 31.7511 75.2307" fill="white"/>
<rect x="1" y="1" width="218" height="218" rx="43" stroke="url(#paint5_linear_6932_36102)" stroke-width="2"/>
<defs>
<linearGradient id="paint0_linear_6932_36102" x1="16.4652" y1="-4.75178" x2="273.304" y2="276.753" gradientUnits="userSpaceOnUse">
<stop stop-color="#7ED5FF"/>
<stop offset="0.5" stop-color="#51A6E1" stop-opacity="0"/>
<stop offset="1" stop-color="#7ED5FF"/>
</linearGradient>
<linearGradient id="paint1_linear_6932_36102" x1="47.7031" y1="-10.5" x2="258.703" y2="210" gradientUnits="userSpaceOnUse">
<stop stop-color="#7ED5FF"/>
<stop offset="0.5" stop-color="#51A6E1" stop-opacity="0"/>
<stop offset="1" stop-color="#7ED5FF"/>
</linearGradient>
<radialGradient id="paint2_radial_6932_36102" cx="0" cy="0" r="1" gradientUnits="userSpaceOnUse" gradientTransform="translate(-9.16667 -9.19042e-06) rotate(38.0168) scale(178.602 196.115)">
<stop offset="0.0206068" stop-color="white" stop-opacity="0.5"/>
<stop offset="0.432292" stop-color="white" stop-opacity="0"/>
</radialGradient>
<radialGradient id="paint3_radial_6932_36102" cx="0" cy="0" r="1" gradientUnits="userSpaceOnUse" gradientTransform="translate(249.792 78.8333) rotate(179.405) scale(132.465 145.454)">
<stop offset="0.0206068" stop-color="white" stop-opacity="0.5"/>
<stop offset="0.451086" stop-color="white" stop-opacity="0"/>
</radialGradient>
<radialGradient id="paint4_radial_6932_36102" cx="0" cy="0" r="1" gradientUnits="userSpaceOnUse" gradientTransform="translate(84.7917 249.333) rotate(-90) scale(152.167 223.222)">
<stop offset="0.0206068" stop-color="white" stop-opacity="0.5"/>
<stop offset="0.451086" stop-color="white" stop-opacity="0"/>
</radialGradient>
<linearGradient id="paint5_linear_6932_36102" x1="1.07139e-06" y1="-5.5" x2="211" y2="215" gradientUnits="userSpaceOnUse">
<stop stop-color="#7ED5FF"/>
<stop offset="0.5" stop-color="#51A6E1" stop-opacity="0"/>
<stop offset="1" stop-color="#7ED5FF"/>
</linearGradient>
</defs>
</svg>
