<svg width="299" height="272" viewBox="0 0 299 272" fill="none" xmlns="http://www.w3.org/2000/svg">
<mask id="path-1-inside-1_6932_36158" fill="white">
<path fill-rule="evenodd" clip-rule="evenodd" d="M91.0346 2.64054C67.1033 -1.5792 44.2823 14.4002 40.0626 38.3316L17.141 168.326C12.9213 192.258 28.9007 215.078 52.832 219.298L67.7558 221.93C68.489 222.242 69.2347 222.537 69.9926 222.813L194.032 267.959C216.867 276.27 242.116 264.497 250.427 241.662L295.574 117.622C303.885 94.7871 292.112 69.5381 269.277 61.2268L255.536 56.2255C250.894 40.8272 237.949 28.5455 221.029 25.5621L91.0346 2.64054Z"/>
</mask>
<path fill-rule="evenodd" clip-rule="evenodd" d="M91.0346 2.64054C67.1033 -1.5792 44.2823 14.4002 40.0626 38.3316L17.141 168.326C12.9213 192.258 28.9007 215.078 52.832 219.298L67.7558 221.93C68.489 222.242 69.2347 222.537 69.9926 222.813L194.032 267.959C216.867 276.27 242.116 264.497 250.427 241.662L295.574 117.622C303.885 94.7871 292.112 69.5381 269.277 61.2268L255.536 56.2255C250.894 40.8272 237.949 28.5455 221.029 25.5621L91.0346 2.64054Z" fill="#2A54FF" fill-opacity="0.4"/>
<path d="M40.0626 38.3316L38.093 37.9843L38.093 37.9843L40.0626 38.3316ZM91.0346 2.64054L90.6873 4.61015L91.0346 2.64054ZM17.141 168.326L15.1714 167.979L15.1714 167.979L17.141 168.326ZM52.832 219.298L53.1793 217.329L53.1793 217.329L52.832 219.298ZM67.7558 221.93L68.5399 220.09L68.329 220L68.1031 219.96L67.7558 221.93ZM69.9926 222.813L70.6767 220.933L70.6767 220.933L69.9926 222.813ZM194.032 267.959L193.348 269.839L193.348 269.839L194.032 267.959ZM250.427 241.662L248.548 240.978L248.548 240.978L250.427 241.662ZM295.574 117.622L293.695 116.938L293.695 116.938L295.574 117.622ZM269.277 61.2268L268.592 63.1062L268.592 63.1062L269.277 61.2268ZM255.536 56.2255L253.621 56.8027L253.91 57.7622L254.852 58.1049L255.536 56.2255ZM221.029 25.5621L221.377 23.5925L221.377 23.5925L221.029 25.5621ZM42.0322 38.6789C46.0601 15.8353 67.8438 0.582217 90.6873 4.61015L91.3819 0.670922C66.3628 -3.74063 42.5045 12.9651 38.093 37.9843L42.0322 38.6789ZM19.1106 168.673L42.0322 38.6789L38.093 37.9843L15.1714 167.979L19.1106 168.673ZM53.1793 217.329C30.3358 213.301 15.0827 191.517 19.1106 168.673L15.1714 167.979C10.7599 192.998 27.4656 216.856 52.4847 221.268L53.1793 217.329ZM68.1031 219.96L53.1793 217.329L52.4847 221.268L67.4085 223.899L68.1031 219.96ZM70.6767 220.933C69.9525 220.67 69.2401 220.388 68.5399 220.09L66.9717 223.77C67.7379 224.096 68.517 224.404 69.3086 224.692L70.6767 220.933ZM194.716 266.08L70.6767 220.933L69.3086 224.692L193.348 269.839L194.716 266.08ZM248.548 240.978C240.615 262.775 216.513 274.013 194.716 266.08L193.348 269.839C217.221 278.528 243.618 266.219 252.307 242.346L248.548 240.978ZM293.695 116.938L248.548 240.978L252.307 242.346L297.453 118.306L293.695 116.938ZM268.592 63.1062C290.39 71.0397 301.628 95.1411 293.695 116.938L297.453 118.306C306.143 94.4332 293.834 68.0365 269.961 59.3474L268.592 63.1062ZM254.852 58.1049L268.592 63.1062L269.961 59.3474L256.22 54.3461L254.852 58.1049ZM220.682 27.5317C236.83 30.379 249.189 42.0991 253.621 56.8027L257.45 55.6483C252.6 39.5553 239.068 26.712 221.377 23.5925L220.682 27.5317ZM90.6873 4.61015L220.682 27.5317L221.377 23.5925L91.3819 0.670922L90.6873 4.61015Z" fill="url(#paint0_linear_6932_36158)" mask="url(#path-1-inside-1_6932_36158)"/>
<rect x="48.5143" y="-3.84154" width="218" height="218" rx="43" transform="rotate(10 48.5143 -3.84154)" fill="#2A54FF" fill-opacity="0.5" stroke="url(#paint1_linear_6932_36158)" stroke-width="2"/>
<rect x="1" y="1" width="218" height="218" rx="43" fill="#2A54FF"/>
<rect x="1" y="1" width="218" height="218" rx="43" fill="url(#paint2_radial_6932_36158)" fill-opacity="0.3"/>
<rect x="1" y="1" width="218" height="218" rx="43" fill="url(#paint3_radial_6932_36158)" fill-opacity="0.3"/>
<rect x="1" y="1" width="218" height="218" rx="43" fill="url(#paint4_radial_6932_36158)" fill-opacity="0.3"/>
<path d="M35.3571 136.567V168.929C52.283 168.929 68.2497 164.841 82.2981 157.675C90.3661 153.531 97.8133 148.38 104.471 142.334C106.389 140.598 108.251 138.806 110.056 136.903C115.36 131.304 120.099 125.089 123.992 118.37C124.105 118.203 124.218 118.034 124.274 117.866C125.685 115.515 127.208 113.219 128.844 111.036C129.126 110.7 129.352 110.364 129.634 110.028C142.441 93.847 162.301 83.4331 184.643 83.4331V51.0714C167.717 51.0714 151.807 55.1586 137.702 62.3252C129.634 66.4685 122.187 71.6195 115.529 77.6662C113.611 79.4018 111.749 81.1935 110 83.0972C104.64 88.7522 99.9008 95.0228 95.9516 101.742C94.4845 104.261 92.9049 106.669 91.1558 108.964C90.8737 109.3 90.6482 109.692 90.3661 110.028C77.5589 126.153 57.6993 136.567 35.3571 136.567Z" fill="white"/>
<path d="M184.643 136.567V168.929C167.717 168.929 151.75 164.841 137.702 157.675C129.634 153.531 122.187 148.38 115.529 142.334C113.611 140.598 111.749 138.806 109.944 136.903C104.64 131.304 99.9008 125.089 96.0079 118.37C95.8953 118.203 95.7824 118.034 95.7258 117.866C94.3153 115.515 92.792 113.219 91.1558 111.036C90.8737 110.7 90.6482 110.364 90.3661 110.028C77.5589 93.847 57.6993 83.4331 35.3571 83.4331V51.0714C52.283 51.0714 68.1931 55.1586 82.2981 62.3252C90.3661 66.4685 97.8133 71.6195 104.471 77.6662C106.389 79.4018 108.251 81.1935 110 83.0972C115.36 88.7522 120.099 95.0228 124.048 101.742C125.515 104.261 127.095 106.669 128.844 108.964C129.126 109.3 129.352 109.692 129.634 110.028C142.441 126.153 162.301 136.567 184.643 136.567Z" fill="white"/>
<rect x="1" y="1" width="218" height="218" rx="43" stroke="url(#paint5_linear_6932_36158)" stroke-width="2"/>
<defs>
<linearGradient id="paint0_linear_6932_36158" x1="16.4652" y1="-4.75178" x2="273.304" y2="276.753" gradientUnits="userSpaceOnUse">
<stop stop-color="#6684FF"/>
<stop offset="0.5" stop-color="#2A54FF" stop-opacity="0"/>
<stop offset="1" stop-color="#6684FF"/>
</linearGradient>
<linearGradient id="paint1_linear_6932_36158" x1="47.7031" y1="-10.5" x2="258.703" y2="210" gradientUnits="userSpaceOnUse">
<stop stop-color="#6684FF"/>
<stop offset="0.5" stop-color="#2A54FF" stop-opacity="0"/>
<stop offset="1" stop-color="#6684FF"/>
</linearGradient>
<radialGradient id="paint2_radial_6932_36158" cx="0" cy="0" r="1" gradientUnits="userSpaceOnUse" gradientTransform="translate(-9.16667 -9.19042e-06) rotate(38.0168) scale(178.602 196.115)">
<stop offset="0.0206068" stop-color="white" stop-opacity="0.4"/>
<stop offset="0.432292" stop-color="white" stop-opacity="0"/>
</radialGradient>
<radialGradient id="paint3_radial_6932_36158" cx="0" cy="0" r="1" gradientUnits="userSpaceOnUse" gradientTransform="translate(249.792 78.8333) rotate(179.405) scale(132.465 145.454)">
<stop offset="0.0206068" stop-color="white" stop-opacity="0.4"/>
<stop offset="0.451086" stop-color="white" stop-opacity="0"/>
</radialGradient>
<radialGradient id="paint4_radial_6932_36158" cx="0" cy="0" r="1" gradientUnits="userSpaceOnUse" gradientTransform="translate(84.7917 249.333) rotate(-90) scale(152.167 223.222)">
<stop offset="0.0206068" stop-color="white" stop-opacity="0.4"/>
<stop offset="0.451086" stop-color="white" stop-opacity="0"/>
</radialGradient>
<linearGradient id="paint5_linear_6932_36158" x1="1.07139e-06" y1="-5.5" x2="211" y2="215" gradientUnits="userSpaceOnUse">
<stop stop-color="#6684FF"/>
<stop offset="0.5" stop-color="#2A54FF" stop-opacity="0"/>
<stop offset="1" stop-color="#6684FF"/>
</linearGradient>
</defs>
</svg>
