<svg width="299" height="272" viewBox="0 0 299 272" fill="none" xmlns="http://www.w3.org/2000/svg">
<mask id="path-1-inside-1_8192_3830" fill="white">
<path fill-rule="evenodd" clip-rule="evenodd" d="M91.0348 2.64066C67.1034 -1.57908 44.2824 14.4003 40.0627 38.3317L17.1411 168.326C12.9214 192.258 28.9008 215.079 52.8322 219.298L67.756 221.93C68.4892 222.242 69.2349 222.537 69.9928 222.813L194.032 267.959C216.867 276.271 242.116 264.497 250.428 241.662L295.574 117.622C303.885 94.7873 292.112 69.5382 269.277 61.2269L255.536 56.2257C250.894 40.8273 237.949 28.5456 221.029 25.5622L91.0348 2.64066Z"/>
</mask>
<path fill-rule="evenodd" clip-rule="evenodd" d="M91.0348 2.64066C67.1034 -1.57908 44.2824 14.4003 40.0627 38.3317L17.1411 168.326C12.9214 192.258 28.9008 215.079 52.8322 219.298L67.756 221.93C68.4892 222.242 69.2349 222.537 69.9928 222.813L194.032 267.959C216.867 276.271 242.116 264.497 250.428 241.662L295.574 117.622C303.885 94.7873 292.112 69.5382 269.277 61.2269L255.536 56.2257C250.894 40.8273 237.949 28.5456 221.029 25.5622L91.0348 2.64066Z" fill="#138C61" fill-opacity="0.7"/>
<path d="M40.0627 38.3317L38.0931 37.9844L40.0627 38.3317ZM91.0348 2.64066L90.6875 4.61028L91.0348 2.64066ZM17.1411 168.326L15.1715 167.979L17.1411 168.326ZM52.8322 219.298L53.1795 217.329L52.8322 219.298ZM67.756 221.93L68.5401 220.09L68.3291 220L68.1032 219.96L67.756 221.93ZM69.9928 222.813L70.6768 220.933L70.6768 220.933L69.9928 222.813ZM194.032 267.959L193.348 269.839L194.032 267.959ZM250.428 241.662L248.548 240.978L250.428 241.662ZM295.574 117.622L293.695 116.938L295.574 117.622ZM269.277 61.2269L268.593 63.1063L269.277 61.2269ZM255.536 56.2257L253.621 56.8029L253.91 57.7623L254.852 58.105L255.536 56.2257ZM221.029 25.5622L221.377 23.5926L221.029 25.5622ZM42.0323 38.679C46.0603 15.8354 67.8439 0.582339 90.6875 4.61028L91.3821 0.671044C66.3629 -3.7405 42.5046 12.9652 38.0931 37.9844L42.0323 38.679ZM19.1108 168.674L42.0323 38.679L38.0931 37.9844L15.1715 167.979L19.1108 168.674ZM53.1795 217.329C30.3359 213.301 15.0828 191.517 19.1108 168.674L15.1715 167.979C10.76 192.998 27.4657 216.856 52.4849 221.268L53.1795 217.329ZM68.1032 219.96L53.1795 217.329L52.4849 221.268L67.4087 223.899L68.1032 219.96ZM70.6768 220.933C69.9526 220.67 69.2403 220.388 68.5401 220.09L66.9718 223.77C67.738 224.096 68.5171 224.404 69.3087 224.692L70.6768 220.933ZM194.716 266.08L70.6768 220.933L69.3087 224.692L193.348 269.839L194.716 266.08ZM248.548 240.978C240.615 262.775 216.513 274.013 194.716 266.08L193.348 269.839C217.221 278.528 243.618 266.219 252.307 242.346L248.548 240.978ZM293.695 116.938L248.548 240.978L252.307 242.346L297.454 118.306L293.695 116.938ZM268.593 63.1063C290.39 71.0398 301.628 95.1412 293.695 116.938L297.454 118.306C306.143 94.4333 293.834 68.0366 269.961 59.3475L268.593 63.1063ZM254.852 58.105L268.593 63.1063L269.961 59.3475L256.22 54.3463L254.852 58.105ZM220.682 27.5318C236.83 30.3792 249.189 42.0992 253.621 56.8029L257.451 55.6484C252.6 39.5555 239.068 26.7121 221.377 23.5926L220.682 27.5318ZM90.6875 4.61028L220.682 27.5318L221.377 23.5926L91.3821 0.671044L90.6875 4.61028Z" fill="url(#paint0_linear_8192_3830)" mask="url(#path-1-inside-1_8192_3830)"/>
<rect opacity="0.6" x="48.5143" y="-3.84154" width="218" height="218" rx="43" transform="rotate(10 48.5143 -3.84154)" fill="#138C61" stroke="url(#paint1_linear_8192_3830)" stroke-width="2"/>
<rect x="1" y="1" width="218" height="218" rx="43" fill="url(#paint2_linear_8192_3830)"/>
<path d="M84.8601 119.455L71.8568 152.223L159.876 220H212C216.418 220 220 216.418 220 212V112.651L164.857 62.8569H71.8568L62.8572 89.6667L84.8601 119.455Z" fill="#17875F"/>
<path d="M172.857 77.8054H146.014V184.643C141.637 184.643 137.325 183.8 133.077 182.113C128.828 180.556 126.704 178.74 126.704 176.664V153.506C117.692 159.215 107.908 162.069 97.3509 162.069C86.7938 162.069 78.1697 159.344 71.4748 153.895C64.9095 148.317 61.6263 141.116 61.6263 132.295C61.6263 125.548 63.9436 119.516 68.5779 114.196C62.0126 111.732 56.7986 108.098 52.9362 103.298C49.0741 98.3687 47.1428 92.5296 47.1428 85.7841C47.1428 79.0378 49.8465 72.8753 55.2537 67.2964C60.7894 61.7183 68.3207 58.9287 77.8481 58.9287C84.7988 58.9287 90.1413 60.4852 93.8755 63.5991C97.7376 66.7127 99.6691 70.5398 99.6691 75.0809C99.6691 84.2917 93.7461 90.7786 81.9032 94.5408C79.9718 92.9844 78.5549 90.7786 77.6543 87.925C82.9317 84.4214 85.5715 80.7248 85.5715 76.8322C85.5715 74.6263 84.9275 72.8753 83.6401 71.5779C82.3527 70.1505 80.2934 69.437 77.4613 69.437C74.6285 69.437 71.8608 70.9944 69.1576 74.1079C66.4539 77.2215 65.1022 81.3077 65.1022 86.3678C65.1022 91.2982 66.4539 95.4488 69.1576 98.8227C71.9894 102.065 75.5299 104.336 79.778 105.634C85.4421 102.78 91.8154 100.639 98.8964 99.211C103.788 103.883 106.878 108.747 108.165 113.807C100.183 115.364 93.4244 117.829 87.8898 121.203C82.4822 124.446 79.778 128.208 79.778 132.489C79.778 136.641 81.194 140.013 84.0269 142.609C86.9876 145.204 91.1713 146.501 96.5789 146.501C102.114 146.501 107.586 144.944 112.993 141.83C118.4 138.716 122.97 134.629 126.704 129.569V77.8054H113.379C108.745 72.3561 106.428 66.5829 106.428 60.4852H166.871C170.861 65.6747 172.857 71.4483 172.857 77.8054Z" fill="white"/>
<rect x="1" y="1" width="218" height="218" rx="43" stroke="url(#paint3_linear_8192_3830)" stroke-width="2"/>
<defs>
<linearGradient id="paint0_linear_8192_3830" x1="16.4653" y1="-4.75166" x2="273.304" y2="276.753" gradientUnits="userSpaceOnUse">
<stop stop-color="white"/>
<stop offset="0.5" stop-color="white" stop-opacity="0"/>
<stop offset="1" stop-color="white" stop-opacity="0.6"/>
</linearGradient>
<linearGradient id="paint1_linear_8192_3830" x1="47.7031" y1="-10.5" x2="258.703" y2="210" gradientUnits="userSpaceOnUse">
<stop stop-color="white" stop-opacity="0.4"/>
<stop offset="0.5" stop-color="white" stop-opacity="0"/>
<stop offset="1" stop-color="white" stop-opacity="0.6"/>
</linearGradient>
<linearGradient id="paint2_linear_8192_3830" x1="206.25" y1="187" x2="127.71" y2="-2.99035" gradientUnits="userSpaceOnUse">
<stop stop-color="#138C61"/>
<stop offset="1" stop-color="#4DBA93" stop-opacity="0.99"/>
</linearGradient>
<linearGradient id="paint3_linear_8192_3830" x1="1.07139e-06" y1="-5.5" x2="211" y2="215" gradientUnits="userSpaceOnUse">
<stop stop-color="white" stop-opacity="0.6"/>
<stop offset="0.5" stop-color="white" stop-opacity="0"/>
<stop offset="1" stop-color="white" stop-opacity="0.6"/>
</linearGradient>
</defs>
</svg>
