<svg width="299" height="272" viewBox="0 0 299 272" fill="none" xmlns="http://www.w3.org/2000/svg">
<mask id="path-1-inside-1_6932_36130" fill="white">
<path fill-rule="evenodd" clip-rule="evenodd" d="M91.0348 2.64042C67.1034 -1.57933 44.2824 14.4001 40.0627 38.3314L17.1411 168.326C12.9214 192.257 28.9008 215.078 52.8322 219.298L67.756 221.93C68.4892 222.242 69.2349 222.537 69.9928 222.812L194.032 267.959C216.867 276.27 242.116 264.496 250.428 241.661L295.574 117.622C303.885 94.787 292.112 69.538 269.277 61.2267L255.536 56.2254C250.894 40.8271 237.949 28.5454 221.029 25.562L91.0348 2.64042Z"/>
</mask>
<path fill-rule="evenodd" clip-rule="evenodd" d="M91.0348 2.64042C67.1034 -1.57933 44.2824 14.4001 40.0627 38.3314L17.1411 168.326C12.9214 192.257 28.9008 215.078 52.8322 219.298L67.756 221.93C68.4892 222.242 69.2349 222.537 69.9928 222.812L194.032 267.959C216.867 276.27 242.116 264.496 250.428 241.661L295.574 117.622C303.885 94.787 292.112 69.538 269.277 61.2267L255.536 56.2254C250.894 40.8271 237.949 28.5454 221.029 25.562L91.0348 2.64042Z" fill="#D81222" fill-opacity="0.4"/>
<path d="M40.0627 38.3314L38.0931 37.9841L38.0931 37.9841L40.0627 38.3314ZM91.0348 2.64042L90.6875 4.61003L91.0348 2.64042ZM17.1411 168.326L15.1715 167.979L15.1715 167.979L17.1411 168.326ZM52.8322 219.298L53.1795 217.328L53.1795 217.328L52.8322 219.298ZM67.756 221.93L68.5401 220.09L68.3291 220L68.1032 219.96L67.756 221.93ZM69.9928 222.812L70.6768 220.933L70.6768 220.933L69.9928 222.812ZM194.032 267.959L193.348 269.838L193.348 269.838L194.032 267.959ZM250.428 241.661L248.548 240.977L248.548 240.977L250.428 241.661ZM295.574 117.622L293.695 116.938L293.695 116.938L295.574 117.622ZM269.277 61.2267L268.593 63.1061L268.593 63.1061L269.277 61.2267ZM255.536 56.2254L253.621 56.8026L253.91 57.7621L254.852 58.1048L255.536 56.2254ZM221.029 25.562L221.377 23.5924L221.377 23.5924L221.029 25.562ZM42.0323 38.6787C46.0603 15.8352 67.8439 0.582095 90.6875 4.61003L91.3821 0.6708C66.3629 -3.74075 42.5046 12.965 38.0931 37.9841L42.0323 38.6787ZM19.1108 168.673L42.0323 38.6787L38.0931 37.9841L15.1715 167.979L19.1108 168.673ZM53.1795 217.328C30.3359 213.301 15.0828 191.517 19.1108 168.673L15.1715 167.979C10.76 192.998 27.4657 216.856 52.4849 221.268L53.1795 217.328ZM68.1032 219.96L53.1795 217.328L52.4849 221.268L67.4087 223.899L68.1032 219.96ZM70.6768 220.933C69.9526 220.669 69.2403 220.388 68.5401 220.09L66.9718 223.769C67.738 224.096 68.5171 224.404 69.3087 224.692L70.6768 220.933ZM194.716 266.08L70.6768 220.933L69.3087 224.692L193.348 269.838L194.716 266.08ZM248.548 240.977C240.615 262.774 216.513 274.013 194.716 266.08L193.348 269.838C217.221 278.527 243.618 266.218 252.307 242.346L248.548 240.977ZM293.695 116.938L248.548 240.977L252.307 242.346L297.454 118.306L293.695 116.938ZM268.593 63.1061C290.39 71.0396 301.628 95.1409 293.695 116.938L297.454 118.306C306.143 94.4331 293.834 68.0364 269.961 59.3473L268.593 63.1061ZM254.852 58.1048L268.593 63.1061L269.961 59.3473L256.22 54.346L254.852 58.1048ZM220.682 27.5316C236.83 30.3789 249.189 42.099 253.621 56.8026L257.451 55.6482C252.6 39.5552 239.068 26.7119 221.377 23.5924L220.682 27.5316ZM90.6875 4.61003L220.682 27.5316L221.377 23.5924L91.3821 0.6708L90.6875 4.61003Z" fill="url(#paint0_linear_6932_36130)" mask="url(#path-1-inside-1_6932_36130)"/>
<rect x="48.5143" y="-3.84154" width="218" height="218" rx="43" transform="rotate(10 48.5143 -3.84154)" fill="#D81222" fill-opacity="0.5" stroke="url(#paint1_linear_6932_36130)" stroke-width="2"/>
<rect x="1" y="1" width="218" height="218" rx="43" fill="#D81222"/>
<rect x="1" y="1" width="218" height="218" rx="43" fill="url(#paint2_radial_6932_36130)" fill-opacity="0.3"/>
<rect x="1" y="1" width="218" height="218" rx="43" fill="url(#paint3_radial_6932_36130)" fill-opacity="0.3"/>
<rect x="1" y="1" width="218" height="218" rx="43" fill="url(#paint4_radial_6932_36130)" fill-opacity="0.3"/>
<path opacity="0.8" d="M138.473 185.475H70.7144V110.492L138.473 185.475Z" fill="white"/>
<path d="M129.021 149.235C140.213 149.235 149.286 140.105 149.286 128.843C149.286 117.581 140.213 108.451 129.021 108.451C117.829 108.451 108.757 117.581 108.757 128.843C108.757 140.105 117.829 149.235 129.021 149.235Z" fill="white"/>
<path d="M138.473 31.4285L70.7144 110.493V185.475L138.473 31.4285Z" fill="white"/>
<rect x="1" y="1" width="218" height="218" rx="43" stroke="url(#paint5_linear_6932_36130)" stroke-width="2"/>
<defs>
<linearGradient id="paint0_linear_6932_36130" x1="16.4653" y1="-4.7519" x2="273.304" y2="276.752" gradientUnits="userSpaceOnUse">
<stop stop-color="#FF636F"/>
<stop offset="0.5" stop-color="#D91727" stop-opacity="0"/>
<stop offset="1" stop-color="#FF636F"/>
</linearGradient>
<linearGradient id="paint1_linear_6932_36130" x1="47.7031" y1="-10.5" x2="258.703" y2="210" gradientUnits="userSpaceOnUse">
<stop stop-color="#FF636F"/>
<stop offset="0.5" stop-color="#D91727" stop-opacity="0"/>
<stop offset="1" stop-color="#FF636F"/>
</linearGradient>
<radialGradient id="paint2_radial_6932_36130" cx="0" cy="0" r="1" gradientUnits="userSpaceOnUse" gradientTransform="translate(-9.16667 -9.19041e-06) rotate(38.0168) scale(178.602 196.115)">
<stop offset="0.0206068" stop-color="white" stop-opacity="0.4"/>
<stop offset="0.432292" stop-color="white" stop-opacity="0"/>
</radialGradient>
<radialGradient id="paint3_radial_6932_36130" cx="0" cy="0" r="1" gradientUnits="userSpaceOnUse" gradientTransform="translate(249.792 78.8333) rotate(179.405) scale(132.465 145.454)">
<stop offset="0.0206068" stop-color="white" stop-opacity="0.4"/>
<stop offset="0.451086" stop-color="white" stop-opacity="0"/>
</radialGradient>
<radialGradient id="paint4_radial_6932_36130" cx="0" cy="0" r="1" gradientUnits="userSpaceOnUse" gradientTransform="translate(84.7917 249.333) rotate(-90) scale(152.167 223.222)">
<stop offset="0.0206068" stop-color="white" stop-opacity="0.4"/>
<stop offset="0.451086" stop-color="white" stop-opacity="0"/>
</radialGradient>
<linearGradient id="paint5_linear_6932_36130" x1="1.07139e-06" y1="-5.5" x2="211" y2="215" gradientUnits="userSpaceOnUse">
<stop stop-color="#FF636F"/>
<stop offset="0.5" stop-color="#D91727" stop-opacity="0"/>
<stop offset="1" stop-color="#FF636F"/>
</linearGradient>
</defs>
</svg>
