<svg width="299" height="272" viewBox="0 0 299 272" fill="none" xmlns="http://www.w3.org/2000/svg">
<mask id="path-1-inside-1_8233_412" fill="white">
<path fill-rule="evenodd" clip-rule="evenodd" d="M91.0348 2.64066C67.1034 -1.57908 44.2825 14.4003 40.0627 38.3317L17.1411 168.326C12.9214 192.258 28.9008 215.079 52.8322 219.298L67.756 221.93C68.4892 222.242 69.2349 222.537 69.9928 222.813L194.032 267.959C216.867 276.271 242.116 264.497 250.428 241.662L295.574 117.622C303.885 94.7873 292.112 69.5382 269.277 61.2269L255.536 56.2257C250.894 40.8273 237.949 28.5456 221.029 25.5622L91.0348 2.64066Z"/>
</mask>
<path fill-rule="evenodd" clip-rule="evenodd" d="M91.0348 2.64066C67.1034 -1.57908 44.2825 14.4003 40.0627 38.3317L17.1411 168.326C12.9214 192.258 28.9008 215.079 52.8322 219.298L67.756 221.93C68.4892 222.242 69.2349 222.537 69.9928 222.813L194.032 267.959C216.867 276.271 242.116 264.497 250.428 241.662L295.574 117.622C303.885 94.7873 292.112 69.5382 269.277 61.2269L255.536 56.2257C250.894 40.8273 237.949 28.5456 221.029 25.5622L91.0348 2.64066Z" fill="#F0F3FA" fill-opacity="0.7"/>
<path d="M40.0627 38.3317L38.0931 37.9844L40.0627 38.3317ZM91.0348 2.64066L90.6875 4.61028L91.0348 2.64066ZM17.1411 168.326L15.1715 167.979L17.1411 168.326ZM52.8322 219.298L53.1795 217.329L52.8322 219.298ZM67.756 221.93L68.5401 220.09L68.3291 220L68.1032 219.96L67.756 221.93ZM69.9928 222.813L70.6768 220.933L70.6768 220.933L69.9928 222.813ZM194.032 267.959L193.348 269.839L194.032 267.959ZM250.428 241.662L248.548 240.978L250.428 241.662ZM295.574 117.622L293.695 116.938L295.574 117.622ZM269.277 61.2269L268.593 63.1063L269.277 61.2269ZM255.536 56.2257L253.621 56.8029L253.91 57.7623L254.852 58.105L255.536 56.2257ZM221.029 25.5622L221.377 23.5926L221.029 25.5622ZM42.0323 38.679C46.0603 15.8354 67.8439 0.582339 90.6875 4.61028L91.3821 0.671044C66.3629 -3.7405 42.5046 12.9652 38.0931 37.9844L42.0323 38.679ZM19.1108 168.674L42.0323 38.679L38.0931 37.9844L15.1715 167.979L19.1108 168.674ZM53.1795 217.329C30.3359 213.301 15.0828 191.517 19.1108 168.674L15.1715 167.979C10.76 192.998 27.4657 216.856 52.4849 221.268L53.1795 217.329ZM68.1032 219.96L53.1795 217.329L52.4849 221.268L67.4087 223.899L68.1032 219.96ZM70.6768 220.933C69.9526 220.67 69.2403 220.388 68.5401 220.09L66.9718 223.77C67.738 224.096 68.5171 224.404 69.3087 224.692L70.6768 220.933ZM194.716 266.08L70.6768 220.933L69.3087 224.692L193.348 269.839L194.716 266.08ZM248.548 240.978C240.615 262.775 216.513 274.013 194.716 266.08L193.348 269.839C217.221 278.528 243.618 266.219 252.307 242.346L248.548 240.978ZM293.695 116.938L248.548 240.978L252.307 242.346L297.454 118.306L293.695 116.938ZM268.593 63.1063C290.39 71.0398 301.628 95.1412 293.695 116.938L297.454 118.306C306.143 94.4333 293.834 68.0366 269.961 59.3475L268.593 63.1063ZM254.852 58.105L268.593 63.1063L269.961 59.3475L256.22 54.3463L254.852 58.105ZM220.682 27.5318C236.83 30.3792 249.189 42.0992 253.621 56.8029L257.451 55.6484C252.6 39.5555 239.068 26.7121 221.377 23.5926L220.682 27.5318ZM90.6875 4.61028L220.682 27.5318L221.377 23.5926L91.3821 0.671044L90.6875 4.61028Z" fill="url(#paint0_linear_8233_412)" mask="url(#path-1-inside-1_8233_412)"/>
<rect opacity="0.6" x="48.5143" y="-3.84154" width="218" height="218" rx="43" transform="rotate(10 48.5143 -3.84154)" fill="#F0F3FA" stroke="url(#paint1_linear_8233_412)" stroke-width="2"/>
<rect x="1" y="1" width="218" height="218" rx="43" fill="#F0F3FA"/>
<rect x="1" y="1" width="218" height="218" rx="43" stroke="url(#paint2_linear_8233_412)" stroke-width="2"/>
<path d="M121.786 51.1811C112.298 77.3423 102.86 103.366 93.3322 129.643C86.1923 122.971 81.7466 115.041 79.8445 105.777C77.9368 96.4964 78.8683 87.43 82.7507 78.4955C72.1078 78.4955 61.688 78.4955 51.1678 78.4955C50.8331 75.4752 51.4076 72.7185 52.328 70.0497C56.255 58.6879 66.3847 51.2964 78.6564 51.1536C92.8246 50.9944 106.998 51.1152 121.172 51.1152C121.312 51.1152 121.451 51.1426 121.786 51.1811Z" fill="#0089FF"/>
<path d="M90.3572 172.776C100.291 145.288 110.212 117.839 120.146 90.3569C134.13 100.967 142.374 122.368 134.353 143.097C125.88 164.995 104.239 173.809 90.3572 172.776Z" fill="#0089FF"/>
<path d="M121.786 78.4909C122.74 75.8936 123.666 73.3801 124.586 70.8554C126.82 64.7336 129.071 58.623 131.254 52.4901C131.626 51.4512 132.146 51.0713 133.3 51.0769C145.917 51.116 158.534 51.1216 171.146 51.0713C172.557 51.0658 172.957 51.4847 172.837 52.814C171.997 61.9632 167.763 69.1462 159.894 74.2012C155.328 77.1336 150.26 78.5412 144.803 78.5579C137.471 78.5803 130.14 78.5691 122.808 78.5635C122.528 78.5691 122.243 78.53 121.786 78.4909Z" fill="#0089FF"/>
<defs>
<linearGradient id="paint0_linear_8233_412" x1="16.4653" y1="-4.75166" x2="273.304" y2="276.753" gradientUnits="userSpaceOnUse">
<stop stop-color="white"/>
<stop offset="0.5" stop-color="white" stop-opacity="0"/>
<stop offset="1" stop-color="white" stop-opacity="0.6"/>
</linearGradient>
<linearGradient id="paint1_linear_8233_412" x1="47.7031" y1="-10.5" x2="258.703" y2="210" gradientUnits="userSpaceOnUse">
<stop stop-color="white" stop-opacity="0.4"/>
<stop offset="0.5" stop-color="white" stop-opacity="0"/>
<stop offset="1" stop-color="white" stop-opacity="0.6"/>
</linearGradient>
<linearGradient id="paint2_linear_8233_412" x1="1.07139e-06" y1="-5.5" x2="211" y2="215" gradientUnits="userSpaceOnUse">
<stop stop-color="white" stop-opacity="0.6"/>
<stop offset="0.5" stop-color="white" stop-opacity="0"/>
<stop offset="1" stop-color="white" stop-opacity="0.6"/>
</linearGradient>
</defs>
</svg>
